{
	"asset":{
		"generator":"Khronos glTF Blender I/O v4.4.56",
		"version":"2.0"
	},
	"scene":0,
	"scenes":[
		{
			"name":"Scene",
			"nodes":[
				0
			]
		}
	],
	"nodes":[
		{
			"mesh":0,
			"name":"simple_hexagon_grid_item"
		}
	],
	"meshes":[
		{
			"name":"Cylinder.012",
			"primitives":[
				{
					"attributes":{
						"POSITION":0,
						"NORMAL":1,
						"TEXCOORD_0":2
					},
					"indices":3
				}
			]
		}
	],
	"accessors":[
		{
			"bufferView":0,
			"componentType":5126,
			"count":8140,
			"max":[
				0.8660253882408142,
				0.4000000059604645,
				1
			],
			"min":[
				-0.8660253882408142,
				-0.4000000059604645,
				-1
			],
			"type":"VEC3"
		},
		{
			"bufferView":1,
			"componentType":5126,
			"count":8140,
			"type":"VEC3"
		},
		{
			"bufferView":2,
			"componentType":5126,
			"count":8140,
			"type":"VEC2"
		},
		{
			"bufferView":3,
			"componentType":5123,
			"count":25476,
			"type":"SCALAR"
		}
	],
	"bufferViews":[
		{
			"buffer":0,
			"byteLength":97680,
			"byteOffset":0,
			"target":34962
		},
		{
			"buffer":0,
			"byteLength":97680,
			"byteOffset":97680,
			"target":34962
		},
		{
			"buffer":0,
			"byteLength":65120,
			"byteOffset":195360,
			"target":34962
		},
		{
			"buffer":0,
			"byteLength":50952,
			"byteOffset":260480,
			"target":34963
		}
	],
	"buffers":[
		{
			"byteLength":311432,
			"uri":"simple_hexagon.bin"
		}
	]
}
